<?xml version="1.0" encoding="utf-8"?>
<!-- Generator: Adobe Illustrator 16.0.0, SVG Export Plug-In . SVG Version: 6.00 Build 0)  -->
<!DOCTYPE svg PUBLIC "-//W3C//DTD SVG 1.1//EN" "http://www.w3.org/Graphics/SVG/1.1/DTD/svg11.dtd">
<svg version="1.1" id="Capa_1" xmlns="http://www.w3.org/2000/svg" xmlns:xlink="http://www.w3.org/1999/xlink" x="0px" y="0px"
	 width="163.799px" height="130.512px" viewBox="0 0 163.799 130.512" enable-background="new 0 0 163.799 130.512"
	 xml:space="preserve">
<g>
	<g>
		<path fill="#FFFFFF" d="M36.769,77.814c-7,0-12.8-1.225-17.401-3.675c-4.604-2.449-8.084-5.872-10.441-10.267
			c-2.359-4.394-3.651-9.51-3.879-15.347c-0.077-2.954-0.115-6.123-0.115-9.51c0-3.386,0.038-6.628,0.115-9.727
			c0.228-5.836,1.52-10.952,3.879-15.347c2.357-4.394,5.838-7.817,10.441-10.267C23.969,1.226,29.769,0,36.769,0
			c5.249,0,9.85,0.686,13.807,2.054c3.954,1.369,7.245,3.207,9.87,5.512c2.624,2.306,4.622,4.882,5.99,7.727
			c1.37,2.847,2.13,5.782,2.282,8.809c0.075,0.648-0.134,1.188-0.627,1.621c-0.496,0.432-1.085,0.648-1.769,0.648h-6.275
			c-0.686,0-1.275-0.18-1.77-0.541c-0.495-0.36-0.855-1.007-1.084-1.945c-1.295-5.621-3.708-9.473-7.246-11.564
			c-3.536-2.089-7.93-3.134-13.179-3.134c-6.162,0-11.031,1.64-14.606,4.917c-3.576,3.28-5.478,8.521-5.706,15.725
			c-0.227,5.909-0.227,11.96,0,18.157c0.229,7.206,2.13,12.447,5.706,15.725c3.575,3.279,8.444,4.917,14.606,4.917
			c5.249,0,9.643-1.043,13.179-3.134c3.538-2.088,5.951-5.944,7.246-11.564c0.229-0.936,0.589-1.584,1.084-1.945
			c0.494-0.36,1.084-0.541,1.77-0.541h6.275c0.684,0,1.272,0.199,1.769,0.594c0.493,0.397,0.702,0.919,0.627,1.567
			c-0.152,3.026-0.912,5.981-2.282,8.863c-1.368,2.883-3.366,5.476-5.99,7.781c-2.625,2.307-5.916,4.144-9.87,5.512
			C46.618,77.128,42.018,77.814,36.769,77.814z"/>
		<path fill="#FFFFFF" d="M86.631,76.733c-0.761,0-1.389-0.233-1.883-0.702c-0.495-0.468-0.741-1.063-0.741-1.783V3.675
			c0-0.792,0.246-1.422,0.741-1.892c0.494-0.468,1.122-0.702,1.883-0.702h5.706c0.913,0,1.597,0.216,2.053,0.648
			c0.457,0.432,0.761,0.793,0.914,1.081l24.076,43.662L143.685,2.81c0.152-0.287,0.438-0.649,0.856-1.081
			c0.417-0.432,1.084-0.648,1.997-0.648h5.592c0.834,0,1.501,0.234,1.995,0.702c0.495,0.47,0.742,1.099,0.742,1.892v70.573
			c0,0.721-0.247,1.315-0.742,1.783c-0.494,0.469-1.161,0.702-1.995,0.702h-5.592c-0.762,0-1.39-0.233-1.882-0.702
			c-0.497-0.468-0.743-1.063-0.743-1.783V21.075l-19.057,35.232c-0.304,0.721-0.761,1.28-1.368,1.675
			c-0.61,0.397-1.369,0.594-2.283,0.594h-3.537c-0.989,0-1.75-0.197-2.282-0.594c-0.532-0.395-0.989-0.954-1.369-1.675
			l-19.17-35.232v53.173c0,0.721-0.247,1.315-0.741,1.783c-0.496,0.469-1.124,0.702-1.883,0.702H86.631z"/>
	</g>
	<g>
		<path fill="#FFFFFF" d="M1.944,130.512c-0.528,0-0.984-0.18-1.368-0.54C0.191,129.612,0,129.144,0,128.568V82.056
			c0-0.527,0.191-0.983,0.576-1.368c0.384-0.383,0.84-0.576,1.368-0.576h14.112c0.527,0,0.982,0.192,1.367,0.576
			C17.808,81.073,18,81.529,18,82.056v15.12h11.664v-15.12c0-0.527,0.191-0.983,0.576-1.368c0.384-0.383,0.839-0.576,1.368-0.576
			h14.112c0.527,0,0.982,0.192,1.367,0.576c0.384,0.385,0.576,0.841,0.576,1.368v46.512c0,0.529-0.192,0.984-0.576,1.368
			c-0.385,0.385-0.84,0.576-1.367,0.576H31.608c-0.529,0-0.984-0.191-1.368-0.576c-0.385-0.384-0.576-0.839-0.576-1.368v-15.552H18
			v15.552c0,0.529-0.192,0.984-0.576,1.368c-0.385,0.385-0.84,0.576-1.367,0.576H1.944z"/>
		<path fill="#FFFFFF" d="M57.527,130.512c-0.528,0-0.984-0.191-1.368-0.576c-0.385-0.384-0.576-0.839-0.576-1.368V82.056
			c0-0.527,0.191-0.983,0.576-1.368c0.384-0.383,0.84-0.576,1.368-0.576h11.376c0.96,0,1.68,0.264,2.16,0.792
			c0.479,0.529,0.792,0.912,0.936,1.152l10.44,17.28l10.439-17.28c0.145-0.24,0.456-0.623,0.937-1.152
			c0.479-0.528,1.199-0.792,2.16-0.792h11.376c0.527,0,0.983,0.192,1.368,0.576c0.383,0.385,0.575,0.841,0.575,1.368v46.512
			c0,0.529-0.192,0.984-0.575,1.368c-0.385,0.385-0.841,0.576-1.368,0.576H94.319c-0.528,0-0.984-0.191-1.368-0.576
			c-0.385-0.384-0.576-0.839-0.576-1.368V108.84l-4.752,7.776c-0.24,0.385-0.564,0.781-0.972,1.188
			c-0.408,0.408-0.972,0.612-1.692,0.612h-5.04c-0.72,0-1.284-0.204-1.691-0.612c-0.408-0.407-0.732-0.803-0.973-1.188l-4.752-7.776
			v19.728c0,0.529-0.192,0.984-0.575,1.368c-0.385,0.385-0.841,0.576-1.368,0.576H57.527z"/>
		<path fill="#FFFFFF" d="M119.158,130.512c-0.528,0-0.984-0.191-1.367-0.576c-0.385-0.384-0.576-0.839-0.576-1.368V82.056
			c0-0.527,0.191-0.983,0.576-1.368c0.383-0.383,0.839-0.576,1.367-0.576h21.313c6.912,0,12.312,1.56,16.2,4.68
			c3.888,3.121,5.832,7.393,5.832,12.816c0,3.216-0.732,6.012-2.196,8.388c-1.465,2.376-3.324,4.284-5.58,5.724l8.856,16.416
			c0.144,0.288,0.216,0.553,0.216,0.792c0,0.432-0.156,0.805-0.468,1.116c-0.313,0.313-0.685,0.468-1.116,0.468h-14.76
			c-0.961,0-1.682-0.239-2.16-0.72c-0.48-0.479-0.792-0.888-0.937-1.225l-6.191-13.751h-2.952v13.751
			c0,0.529-0.192,0.984-0.576,1.368c-0.385,0.385-0.841,0.576-1.368,0.576H119.158z M135.215,101.136h5.256
			c1.104,0,1.932-0.371,2.484-1.116c0.551-0.744,0.827-1.595,0.827-2.556c0-0.96-0.252-1.86-0.756-2.7
			c-0.504-0.839-1.356-1.26-2.556-1.26h-5.256V101.136z"/>
	</g>
</g>
</svg>
